<svg width="23.691650" height="40.093628" viewBox="0 0 23.6917 40.0936" fill="none" xmlns="http://www.w3.org/2000/svg" xmlns:xlink="http://www.w3.org/1999/xlink">
	<desc>
			Created with Pixso.
	</desc>
	<defs/>
	<path id="Vector" d="M1.86 10.12C1.83 15.67 6.31 20.27 11.76 20.29C17.27 20.31 21.78 15.82 21.81 10.27C21.84 4.6 17.4 0.01 11.88 0C6.37 -0.02 1.89 4.5 1.86 10.12ZM11.84 5.18C14.55 5.18 16.71 7.38 16.72 10.13C16.73 12.89 14.57 15.1 11.87 15.11C9.15 15.12 6.97 12.94 6.95 10.19C6.93 7.41 9.11 5.17 11.84 5.18ZM1.72 25.27C4.08 27.15 6.84 27.91 9.9 28.24C9.68 28.47 9.54 28.63 9.4 28.78L8.05 30.16C6.25 31.99 4.46 33.81 2.66 35.64C2.2 36.11 1.86 36.63 1.83 37.32C1.78 38.34 2.4 39.35 3.38 39.83C4.3 40.29 5.24 40.14 6.03 39.35C7.8 37.58 9.55 35.81 11.27 34C11.7 33.55 11.94 33.45 12.43 33.97C13.56 35.17 14.72 36.35 15.88 37.52C16.44 38.09 17.01 38.66 17.57 39.23C18.02 39.69 18.52 40.02 19.17 40.06C20.19 40.13 21.23 39.47 21.69 38.46C22.12 37.54 21.95 36.56 21.18 35.77C19.73 34.28 18.28 32.8 16.83 31.32C16 30.48 15.18 29.65 14.36 28.81C14.25 28.69 14.15 28.58 14 28.42L13.84 28.23C15.51 28.03 17.2 27.72 18.74 27.11C20.37 26.47 21.84 25.55 23.06 24.28C23.86 23.44 23.87 22.4 23.22 21.33C22.66 20.39 21.67 20 20.62 20.27C20.08 20.42 19.61 20.69 19.17 21.03C14.76 24.05 8.71 23.97 4.31 20.9C4.19 20.81 4.07 20.73 3.94 20.65C3.84 20.59 3.74 20.54 3.63 20.49C2.41 19.9 1.24 20.18 0.54 21.2C-0.28 22.39 -0.18 23.54 0.86 24.55C1.13 24.81 1.43 25.04 1.72 25.27Z" fill="#FFFFFF" fill-opacity="0.150000" fill-rule="evenodd"/>
</svg>
