<svg width="45.000000" height="39.180054" viewBox="0 0 45 39.1801" fill="none" xmlns="http://www.w3.org/2000/svg" xmlns:xlink="http://www.w3.org/1999/xlink">
	<desc>
			Created with Pixso.
	</desc>
	<defs/>
	<path id="Vector" d="M0.79 18.78L11.16 22.65L15.17 35.56C15.43 36.39 16.44 36.69 17.11 36.14L22.89 31.43C23.5 30.94 24.36 30.91 24.99 31.37L35.42 38.94C36.14 39.46 37.15 39.07 37.33 38.2L44.97 1.47C45.17 0.52 44.23 -0.27 43.33 0.08L0.78 16.5C-0.27 16.9 -0.26 18.39 0.79 18.78ZM14.53 20.59L34.79 8.11C35.15 7.89 35.53 8.38 35.22 8.67L18.49 24.22C17.9 24.76 17.52 25.5 17.42 26.29L16.85 30.51C16.77 31.08 15.98 31.13 15.83 30.59L13.63 22.89C13.38 22.01 13.75 21.07 14.53 20.59Z" fill="#FFFFFF" fill-opacity="0.150000" fill-rule="nonzero"/>
</svg>
