<svg width="40.093628" height="32.583130" viewBox="0 0 40.0936 32.5831" fill="none" xmlns="http://www.w3.org/2000/svg" xmlns:xlink="http://www.w3.org/1999/xlink">
	<desc>
			Created with Pixso.
	</desc>
	<defs/>
	<path id="Vector" d="M40.09 3.85C38.61 4.51 37.03 4.95 35.36 5.15C37.06 4.13 38.37 2.52 38.98 0.6C37.39 1.54 35.63 2.22 33.76 2.59C32.26 0.99 30.12 0 27.75 0C23.21 0 19.53 3.68 19.53 8.22C19.53 8.87 19.6 9.49 19.74 10.1C12.9 9.75 6.84 6.48 2.79 1.5C2.08 2.72 1.67 4.13 1.67 5.64C1.67 8.49 3.12 11.01 5.33 12.48C3.98 12.44 2.72 12.07 1.61 11.45C1.61 11.49 1.61 11.52 1.61 11.56C1.61 15.54 4.44 18.87 8.2 19.62C7.51 19.81 6.79 19.91 6.04 19.91C5.51 19.91 4.99 19.86 4.49 19.76C5.54 23.03 8.57 25.41 12.17 25.48C9.36 27.68 5.81 29 1.96 29C1.29 29 0.64 28.96 0 28.88C3.64 31.22 7.96 32.58 12.6 32.58C27.73 32.58 36.01 20.04 36.01 9.17C36.01 8.82 36 8.46 35.98 8.11C37.59 6.95 38.99 5.5 40.09 3.85Z" fill="#FFFFFF" fill-opacity="0.150000" fill-rule="nonzero"/>
</svg>
