<svg width="40.093628" height="22.689331" viewBox="0 0 40.0936 22.6893" fill="none" xmlns="http://www.w3.org/2000/svg" xmlns:xlink="http://www.w3.org/1999/xlink">
	<desc>
			Created with Pixso.
	</desc>
	<defs/>
	<path id="Vector" d="M34.5 14.42C35.83 15.72 37.24 16.94 38.43 18.37C38.95 19.01 39.45 19.66 39.84 20.4C40.38 21.45 39.89 22.6 38.95 22.66L33.11 22.66C31.6 22.79 30.4 22.18 29.39 21.15C28.58 20.33 27.83 19.45 27.05 18.6C26.73 18.25 26.4 17.92 26 17.66C25.2 17.15 24.51 17.3 24.06 18.14C23.59 18.98 23.49 19.92 23.44 20.86C23.38 22.24 22.96 22.6 21.58 22.66C18.63 22.8 15.83 22.35 13.22 20.86C10.62 19.37 9.15 17.7 7.6 15.6C4.58 11.51 2.27 7.02 0.2 2.41C-0.27 1.37 0.07 0.81 1.22 0.79C3.13 0.75 5.03 0.75 6.94 0.78C7.71 0.8 8.23 1.24 8.52 1.97C9.56 4.51 10.82 6.92 12.4 9.15C12.82 9.75 13.25 10.34 13.86 10.76C14.54 11.23 15.06 11.07 15.38 10.32C15.58 9.84 15.67 9.32 15.71 8.81C15.86 7.05 15.88 5.29 15.62 3.53C15.46 2.44 14.84 1.73 13.74 1.52C13.19 1.41 13.27 1.21 13.54 0.89C14.01 0.34 14.45 0 15.33 0L21.93 0C22.97 0.2 23.2 0.67 23.34 1.71L23.35 9.05C23.34 9.45 23.55 10.65 24.28 10.92C24.86 11.11 24.02 11.95 25.6 10.27C27.18 8.6 28.31 6.61 29.32 4.56C29.76 3.66 30.15 2.72 30.52 1.78C30.8 1.09 31.23 0.75 32.01 0.76L38.37 0.77C38.55 0.77 38.74 0.77 38.93 0.8C40 0.98 40.29 1.44 39.96 2.49C39.44 4.13 38.43 5.5 37.43 6.87C36.37 8.34 35.24 9.75 34.19 11.23C33.23 12.57 33.3 13.25 34.5 14.42Z" fill="#FFFFFF" fill-opacity="0.150000" fill-rule="nonzero"/>
</svg>
