<svg width="70.581787" height="14.010010" viewBox="0 0 70.5818 14.01" fill="none" xmlns="http://www.w3.org/2000/svg" xmlns:xlink="http://www.w3.org/1999/xlink">
	<desc>
			Created with Pixso.
	</desc>
	<defs/>
	<path id="App Store" d="M34.78 0.76C34.05 1.27 33.69 2.01 33.69 2.98C33.69 3.56 33.83 4.06 34.11 4.49Q34.48 5.04 34.99 5.37Q35.08 5.43 35.17 5.48C35.6 5.7 36.06 5.91 36.55 6.11C37.05 6.3 37.51 6.47 37.93 6.61C38.36 6.74 38.72 6.92 39 7.15C39.29 7.37 39.43 7.63 39.43 7.93C39.43 8.6 38.78 8.93 37.47 8.93C36.11 8.93 34.87 8.56 33.75 7.82L33.75 9.97C34.88 10.6 36.17 10.92 37.63 10.92C38.21 10.92 38.74 10.86 39.21 10.75Q39.91 10.6 40.5 10.26C40.89 10.03 41.19 9.7 41.4 9.29C41.62 8.88 41.73 8.39 41.73 7.82Q41.73 7.14 41.46 6.59Q41.39 6.44 41.29 6.29Q40.97 5.78 40.51 5.47Q40.37 5.38 40.23 5.3C39.81 5.07 39.35 4.86 38.85 4.67C38.36 4.47 37.9 4.31 37.47 4.19Q36.84 4 36.4 3.68Q36.08 3.44 36 3.14Q35.98 3.05 35.98 2.95C35.98 2.32 36.55 1.99 37.69 1.97C38.96 1.95 40.04 2.26 40.93 2.9L40.93 0.8C39.98 0.26 38.85 -4.68e-5 37.53 -4.68e-5C36.43 -4.68e-5 35.51 0.25 34.78 0.76ZM-4.4e-5 10.71L2.32 10.71L3.1 8.74L7.9 8.74L8.66 10.71L10.99 10.71L6.71 0.2L4.28 0.2L-4.4e-5 10.71ZM45.41 0.91L43.34 1.4L43.34 3.5L42.13 3.5L42.13 5.26L43.34 5.26L43.34 8.48C43.34 9.32 43.58 9.94 44.06 10.33C44.55 10.72 45.18 10.92 45.94 10.92Q46.97 10.92 47.87 10.6L47.87 8.92C47.46 9.08 47.03 9.16 46.57 9.16C45.8 9.16 45.41 8.8 45.41 8.08L45.41 5.26L47.69 5.26L47.69 3.5L45.41 3.5L45.41 0.91ZM3.8 6.88L5.26 3.11C5.36 2.87 5.44 2.6 5.5 2.29C5.55 2.56 5.62 2.83 5.72 3.11L7.19 6.88L3.8 6.88ZM14.53 3.8Q14.09 4.09 13.77 4.55L13.77 3.5L11.92 3.5L11.92 14.01L14.01 14.01L14.01 9.94Q14.29 10.25 14.64 10.46Q15.37 10.92 16.38 10.92Q17.47 10.92 18.25 10.42Q18.63 10.18 18.94 9.8C19.57 9.05 19.89 8.15 19.89 7.1Q19.89 6.07 19.48 5.23Q19.26 4.8 18.94 4.42C18.32 3.67 17.47 3.29 16.38 3.29Q15.29 3.29 14.53 3.8ZM23.87 3.8Q23.43 4.09 23.1 4.55L23.1 3.5L21.25 3.5L21.25 14.01L23.34 14.01L23.34 9.94C23.93 10.59 24.72 10.92 25.71 10.92Q26.8 10.92 27.58 10.42Q27.96 10.18 28.27 9.8C28.9 9.05 29.22 8.15 29.22 7.1Q29.22 6.07 28.81 5.23Q28.6 4.8 28.27 4.42C27.65 3.67 26.8 3.29 25.71 3.29Q24.62 3.29 23.87 3.8ZM48.67 7.1C48.67 8.3 49.05 9.24 49.82 9.91C50.59 10.58 51.53 10.92 52.64 10.92C53.76 10.92 54.7 10.58 55.46 9.91C56.23 9.24 56.62 8.3 56.62 7.1C56.62 5.9 56.23 4.97 55.46 4.3C54.7 3.63 53.76 3.29 52.64 3.29C51.53 3.29 50.59 3.63 49.82 4.3C49.05 4.97 48.67 5.9 48.67 7.1ZM63.62 5.38C63.39 5.88 63.27 6.45 63.27 7.1Q63.27 8.37 63.86 9.24Q64.1 9.61 64.46 9.91C65.25 10.58 66.24 10.92 67.44 10.92C68.49 10.92 69.37 10.77 70.08 10.47L70.08 8.83C69.42 9.12 68.7 9.26 67.91 9.26Q66.95 9.26 66.24 8.9C65.77 8.65 65.48 8.28 65.37 7.78L70.44 7.78C70.59 7.25 70.62 6.72 70.52 6.19Q70.38 5.38 70.01 4.75C69.76 4.32 69.37 3.97 68.84 3.7C68.32 3.43 67.7 3.29 66.98 3.29C66.55 3.29 66.12 3.37 65.7 3.52C65.29 3.67 64.9 3.89 64.52 4.18C64.15 4.47 63.85 4.87 63.62 5.38ZM60.99 3.61C60.48 3.84 60.09 4.16 59.82 4.58L59.82 3.5L57.98 3.5L57.98 10.71L60.06 10.71L60.06 6.47Q60.17 6.27 60.31 6.1Q60.62 5.74 61.13 5.53C61.63 5.33 62.16 5.28 62.73 5.38L62.73 3.35C62.08 3.29 61.5 3.38 60.99 3.61ZM68.28 5.41C68.52 5.76 68.62 6.1 68.57 6.43L65.36 6.43C65.37 5.95 65.54 5.57 65.87 5.3C66.2 5.02 66.59 4.88 67.05 4.88C67.63 4.88 68.04 5.06 68.28 5.41ZM17.76 7.1C17.76 7.68 17.59 8.17 17.25 8.57C16.91 8.96 16.45 9.16 15.87 9.16Q15.46 9.16 15.1 9.02Q14.9 8.94 14.71 8.81C14.38 8.58 14.14 8.3 13.99 7.96L13.99 6.25C14.14 5.91 14.38 5.62 14.71 5.39Q14.9 5.27 15.1 5.19Q15.46 5.05 15.87 5.05C16.45 5.05 16.91 5.25 17.25 5.65Q17.39 5.81 17.49 5.99Q17.76 6.47 17.76 7.1ZM27.09 7.1C27.09 7.68 26.92 8.17 26.58 8.57C26.24 8.96 25.78 9.16 25.2 9.16Q24.79 9.16 24.44 9.02Q24.23 8.94 24.04 8.81Q23.67 8.55 23.44 8.19Q23.38 8.08 23.32 7.96L23.32 6.25Q23.38 6.13 23.44 6.02Q23.67 5.66 24.04 5.39Q24.23 5.27 24.44 5.19Q24.79 5.05 25.2 5.05C25.78 5.05 26.24 5.25 26.58 5.65Q26.72 5.81 26.82 5.99Q27.09 6.47 27.09 7.1ZM54.5 7.1C54.5 7.67 54.34 8.14 54.01 8.51C53.68 8.87 53.22 9.05 52.64 9.05C52.06 9.05 51.61 8.87 51.28 8.51C50.96 8.14 50.8 7.67 50.8 7.1C50.8 6.53 50.96 6.07 51.28 5.71C51.61 5.34 52.06 5.15 52.64 5.15C53.22 5.15 53.68 5.34 54.01 5.71C54.34 6.07 54.5 6.53 54.5 7.1Z" fill="#FFFFFF" fill-opacity="0.600000" fill-rule="evenodd"/>
</svg>
