<svg width="52.000000" height="67.000000" viewBox="0 0 52 67" fill="none" xmlns="http://www.w3.org/2000/svg" xmlns:xlink="http://www.w3.org/1999/xlink">
	<desc>
			Created with Pixso.
	</desc>
	<defs/>
	<path id="Vector" d="M35.73 10.18C38.24 7.48 39.94 3.73 39.47 0C35.86 0.12 31.48 2.13 28.89 4.83C26.56 7.21 24.53 11.03 25.07 14.7C29.1 14.97 33.22 12.87 35.73 10.18ZM43.43 35.98C43.35 27.61 50.02 23.58 50.32 23.39C46.57 17.7 40.72 16.92 38.64 16.83C33.67 16.31 28.94 19.86 26.42 19.86C23.9 19.86 20.01 16.9 15.88 16.98C10.46 17.07 5.46 20.25 2.67 25.28C-2.96 35.41 1.23 50.41 6.72 58.62C9.4 62.64 12.6 67.15 16.8 66.99C20.85 66.83 22.38 64.28 27.26 64.28C32.15 64.28 33.52 66.99 37.8 66.91C42.16 66.83 44.91 62.81 47.57 58.78C50.65 54.11 51.92 49.6 52 49.37C51.9 49.32 43.52 46 43.43 35.98Z" fill="#FFFFFF" fill-opacity="0.600000" fill-rule="evenodd"/>
</svg>
