<svg width="82.608154" height="14.459961" viewBox="0 0 82.6082 14.46" fill="none" xmlns="http://www.w3.org/2000/svg" xmlns:xlink="http://www.w3.org/1999/xlink">
	<desc>
			Created with Pixso.
	</desc>
	<defs/>
	<path id="Google Play" d="M40.12 -5.63e-5L38.03 -5.63e-5L38.03 10.94L40.12 10.94L40.12 -5.63e-5ZM65.55 -5.63e-5L63.46 -5.63e-5L63.46 10.94L65.55 10.94L65.55 -5.63e-5ZM0.47 3.25Q-5.37e-5 4.31 -5.37e-5 5.69Q-5.37e-5 6.82 0.31 7.75C0.53 8.36 0.82 8.87 1.18 9.29C1.54 9.7 1.96 10.05 2.45 10.34C2.95 10.62 3.48 10.83 4.03 10.96C4.59 11.09 5.17 11.15 5.77 11.15Q6.51 11.15 7.22 11.03Q8.23 10.86 9.19 10.45L9.19 5.24L7.04 5.24L7.04 8.99C6.7 9.12 6.32 9.19 5.89 9.19Q5.24 9.19 4.66 9.02C4.27 8.91 3.89 8.74 3.52 8.5C3.15 8.25 2.85 7.88 2.62 7.4C2.4 6.92 2.29 6.35 2.29 5.69Q2.29 4.35 2.95 3.53Q3.13 3.3 3.37 3.11C4.09 2.53 4.97 2.24 6.01 2.24Q7.54 2.24 8.69 2.91Q8.82 2.98 8.93 3.05L8.93 0.91Q8.44 0.69 7.93 0.54Q6.87 0.23 5.71 0.23Q4.63 0.23 3.65 0.55Q3.62 0.56 3.59 0.56C2.92 0.77 2.31 1.09 1.76 1.52C1.22 1.95 0.79 2.53 0.47 3.25ZM57.64 0.44L53.68 0.44L53.68 10.94L55.93 10.94L55.93 7.49L57.64 7.49Q60.46 7.49 61.53 6.13Q62.17 5.3 62.17 3.97C62.17 1.62 60.66 0.44 57.64 0.44ZM59.88 3.97C59.88 5 59.17 5.51 57.75 5.51L55.93 5.51L55.93 2.42L57.75 2.42Q59.14 2.42 59.62 3.09Q59.88 3.44 59.88 3.97ZM11.06 9.54Q11.29 9.88 11.61 10.15Q11.99 10.48 12.43 10.71Q13.31 11.15 14.43 11.15C15.55 11.15 16.49 10.82 17.25 10.15C18.02 9.48 18.4 8.54 18.4 7.34C18.4 6.14 18.02 5.21 17.25 4.54C16.49 3.87 15.55 3.53 14.43 3.53Q13.31 3.53 12.43 3.98Q11.99 4.21 11.61 4.54Q11.29 4.81 11.06 5.15Q10.45 6.03 10.45 7.34Q10.45 8.66 11.06 9.54ZM19.97 9.54Q20.2 9.88 20.51 10.15C21.28 10.82 22.22 11.15 23.33 11.15C24.45 11.15 25.39 10.82 26.15 10.15C26.92 9.48 27.31 8.54 27.31 7.34C27.31 6.14 26.92 5.21 26.15 4.54C25.39 3.87 24.45 3.53 23.33 3.53C22.22 3.53 21.28 3.87 20.51 4.54Q20.2 4.81 19.97 5.15Q19.36 6.03 19.36 7.34Q19.36 8.66 19.97 9.54ZM28.66 9.19Q28.88 9.65 29.21 10.04Q29.53 10.42 29.93 10.67Q30.71 11.15 31.79 11.15C32.78 11.15 33.57 10.83 34.16 10.18L34.16 10.84C34.16 12.08 33.38 12.7 31.82 12.7C30.81 12.7 29.88 12.45 29.04 11.95L29.04 13.78C29.97 14.23 30.99 14.45 32.09 14.45C32.64 14.45 33.15 14.38 33.63 14.24C34.11 14.11 34.55 13.91 34.94 13.63C35.34 13.36 35.65 12.97 35.88 12.47C36.11 11.98 36.23 11.41 36.23 10.75L36.23 3.74L34.4 3.74L34.4 4.79C33.79 3.95 32.92 3.53 31.79 3.53Q30.73 3.53 29.96 4.01Q29.54 4.26 29.21 4.66C28.58 5.4 28.26 6.29 28.26 7.34Q28.26 8.36 28.66 9.19ZM41.85 5.62C41.62 6.12 41.51 6.69 41.51 7.34Q41.51 8.61 42.09 9.48Q42.34 9.85 42.69 10.15C43.48 10.82 44.48 11.15 45.68 11.15C46.73 11.15 47.61 11 48.32 10.7L48.32 9.07C47.66 9.36 46.93 9.5 46.14 9.5Q45.18 9.5 44.48 9.14C44.01 8.89 43.72 8.52 43.61 8.02L48.68 8.02C48.83 7.49 48.85 6.96 48.75 6.43C48.66 5.89 48.49 5.41 48.24 4.99C47.99 4.56 47.6 4.21 47.07 3.94C46.55 3.67 45.93 3.53 45.21 3.53C44.78 3.53 44.36 3.61 43.94 3.76C43.53 3.91 43.13 4.13 42.75 4.42C42.38 4.71 42.08 5.11 41.85 5.62ZM74.29 9.56C73.95 9.56 73.78 9.4 73.78 9.08L73.78 6.79Q73.78 5.3 73.03 4.49Q72.15 3.53 70.24 3.53Q68.89 3.53 67.45 4.01L67.45 5.81C68.35 5.45 69.2 5.27 70 5.27C70.55 5.27 70.97 5.38 71.26 5.6C71.55 5.82 71.69 6.12 71.69 6.49L71.69 6.74C71.14 6.61 70.57 6.55 69.98 6.55C69.45 6.55 68.96 6.62 68.51 6.76C68.06 6.89 67.67 7.14 67.33 7.52C66.99 7.9 66.82 8.38 66.82 8.95C66.82 9.63 67.06 10.17 67.54 10.57Q67.7 10.7 67.88 10.8Q68.51 11.15 69.34 11.15C70.32 11.15 71.18 10.86 71.93 10.27C72.23 10.81 72.76 11.08 73.52 11.08C73.91 11.08 74.3 11.01 74.68 10.87L74.68 9.5C74.56 9.54 74.43 9.56 74.29 9.56ZM80.44 3.74L78.66 8.6L76.56 3.74L74.35 3.74L77.76 11.05L77.74 11.08Q77.31 12.29 76.53 12.57Q76.3 12.65 76.03 12.65C75.79 12.65 75.51 12.62 75.18 12.55L75.18 14.27C75.64 14.38 76.01 14.44 76.3 14.44C77.66 14.44 78.7 13.56 79.41 11.81L82.6 3.74L80.44 3.74ZM46.52 5.65C46.76 6 46.85 6.34 46.8 6.67L43.59 6.67C43.6 6.19 43.77 5.81 44.1 5.54C44.43 5.26 44.83 5.12 45.29 5.12Q46.01 5.12 46.38 5.49Q46.46 5.56 46.52 5.65ZM33.42 5.63C33.76 5.86 34.01 6.15 34.16 6.49L34.16 8.24C34.01 8.57 33.76 8.85 33.42 9.07C33.09 9.29 32.71 9.4 32.28 9.4C31.7 9.4 31.24 9.2 30.9 8.81C30.56 8.41 30.39 7.92 30.39 7.34C30.39 6.76 30.56 6.28 30.9 5.89C31.24 5.49 31.7 5.29 32.28 5.29C32.71 5.29 33.09 5.4 33.42 5.63ZM16.29 7.34C16.29 7.91 16.12 8.38 15.79 8.75C15.46 9.11 15.01 9.29 14.43 9.29Q13.77 9.29 13.33 8.99Q13.18 8.89 13.06 8.75C12.74 8.38 12.58 7.91 12.58 7.34C12.58 6.77 12.74 6.31 13.06 5.95C13.39 5.58 13.85 5.39 14.43 5.39Q15.06 5.39 15.49 5.69Q15.66 5.8 15.79 5.95C16.12 6.31 16.29 6.77 16.29 7.34ZM25.19 7.34C25.19 7.91 25.03 8.38 24.7 8.75C24.37 9.11 23.91 9.29 23.33 9.29Q22.68 9.29 22.23 8.99Q22.09 8.89 21.97 8.75C21.65 8.38 21.49 7.91 21.49 7.34C21.49 6.77 21.65 6.31 21.97 5.95C22.3 5.58 22.75 5.39 23.33 5.39Q23.97 5.39 24.4 5.69Q24.56 5.8 24.7 5.95C25.03 6.31 25.19 6.77 25.19 7.34ZM69.38 8.03C69.67 7.87 70.03 7.79 70.46 7.79C70.82 7.79 71.23 7.85 71.69 7.96L71.69 9.08C71.24 9.47 70.7 9.67 70.07 9.67C69.75 9.67 69.48 9.59 69.26 9.43C69.05 9.26 68.95 9.04 68.95 8.78C68.95 8.44 69.09 8.19 69.38 8.03Z" fill="#FFFFFF" fill-opacity="0.600000" fill-rule="evenodd"/>
</svg>
