<svg width="46.000000" height="50.000000" viewBox="0 0 46 50" fill="none" xmlns="http://www.w3.org/2000/svg" xmlns:xlink="http://www.w3.org/1999/xlink">
	<desc>
			Created with Pixso.
	</desc>
	<defs/>
	<path id="Vector" d="M0.2 2.36C0.2 2.36 24.17 25.02 24.17 25.02L0.19 47.62C0.08 47.21 0 46.76 0 46.25L0 3.75C0 3.23 0.08 2.78 0.2 2.36ZM33.53 16.2L26.47 22.86L2.39 0.1C3.32 -0.14 4.42 0.03 5.53 0.71L33.53 16.2ZM43.85 21.91C46.04 23.14 47.34 26.38 43.79 28.39L36.52 32.36L28.72 24.99L36.38 17.78L43.85 21.91ZM2.32 49.88C2.32 49.88 26.42 27.15 26.42 27.15L33.61 33.95L5.53 49.29C4.39 49.98 3.26 50.14 2.32 49.88Z" fill="#FFFFFF" fill-opacity="0.600000" fill-rule="evenodd"/>
</svg>
