<svg width="71.000000" height="72.000000" viewBox="0 0 71 72" fill="none" xmlns="http://www.w3.org/2000/svg" xmlns:xlink="http://www.w3.org/1999/xlink">
	<desc>
			Created with Pixso.
	</desc>
	<defs/>
	<ellipse id="Ellipse 30" cx="35.500000" cy="36.000000" rx="35.500000" ry="36.000000" fill="#FFF0B8" fill-opacity="1.000000"/>
	<path id="Vector" d="M36 8C28.95 8 23.22 13.78 23.22 20.89C23.22 28 28.95 33.78 36 33.78C43.04 33.78 48.77 28 48.77 20.89C48.77 13.78 43.04 8 36 8ZM36 28.63C31.77 28.63 28.33 25.16 28.33 20.89C28.33 16.62 31.77 13.15 36 13.15C40.22 13.15 43.66 16.62 43.66 20.89C43.66 25.16 40.22 28.63 36 28.63ZM59 57L59 54.42C59 44.46 50.97 36.36 41.11 36.36L30.88 36.36C21.02 36.36 13 44.46 13 54.42L13 57L18.11 57L18.11 54.42C18.11 47.31 23.84 41.52 30.88 41.52L41.11 41.52C48.15 41.52 53.88 47.31 53.88 54.42L53.88 57L59 57Z" fill="#FFD22F" fill-opacity="1.000000" fill-rule="nonzero"/>
</svg>
