<svg width="72.000000" height="72.000000" viewBox="0 0 72 72" fill="none" xmlns="http://www.w3.org/2000/svg" xmlns:xlink="http://www.w3.org/1999/xlink">
	<desc>
			Created with Pixso.
	</desc>
	<defs/>
	<circle id="Ellipse 30" cx="36.000000" cy="36.000000" r="36.000000" fill="#9EF8B9" fill-opacity="1.000000"/>
	<path id="file / file_blank_outline" d="M55.84 27.36C55.81 27.28 55.79 27.21 55.76 27.13C55.64 26.87 55.49 26.62 55.28 26.41L40.66 11.71C40.45 11.5 40.2 11.35 39.94 11.23C39.87 11.2 39.79 11.18 39.72 11.15C39.51 11.08 39.3 11.04 39.08 11.03C39.03 11.02 38.98 11 38.93 11L21.87 11C19.18 11 17 13.19 17 15.9L17 55.1C17 57.8 19.18 60 21.87 60L51.12 60C53.81 60 56 57.8 56 55.1L56 28.15C56 28.09 55.97 28.05 55.96 27.99C55.95 27.78 55.91 27.57 55.84 27.36ZM47.67 25.7L41.37 25.7L41.37 19.36L47.67 25.7ZM21.87 55.1L21.87 15.9L36.5 15.9L36.5 28.15C36.5 29.5 37.58 30.6 38.93 30.6L51.12 30.6L51.12 55.1L21.87 55.1Z" fill="#38C463" fill-opacity="1.000000" fill-rule="evenodd"/>
</svg>
