<svg width="40.093628" height="40.093628" viewBox="0 0 40.0936 40.0936" fill="none" xmlns="http://www.w3.org/2000/svg" xmlns:xlink="http://www.w3.org/1999/xlink">
	<desc>
			Created with Pixso.
	</desc>
	<defs/>
	<path id="Vector" d="M28.44 0L11.64 0C5.22 0 0 5.22 0 11.64L0 28.44C0 34.86 5.22 40.09 11.64 40.09L28.44 40.09C34.86 40.09 40.09 34.86 40.09 28.44L40.09 11.64C40.09 5.22 34.86 0 28.44 0ZM36.96 28.44C36.96 33.14 33.14 36.96 28.44 36.96L11.64 36.96C6.95 36.96 3.13 33.14 3.13 28.44L3.13 11.64C3.13 6.95 6.95 3.13 11.64 3.13L28.44 3.13C33.14 3.13 36.96 6.95 36.96 11.64L36.96 28.44ZM20.04 9.24C14.08 9.24 9.24 14.08 9.24 20.04C9.24 26 14.08 30.85 20.04 30.85C26 30.85 30.85 26 30.85 20.04C30.85 14.08 26 9.24 20.04 9.24ZM20.04 27.72C15.81 27.72 12.37 24.27 12.37 20.04C12.37 15.81 15.81 12.37 20.04 12.37C24.27 12.37 27.72 15.81 27.72 20.04C27.72 24.27 24.27 27.72 20.04 27.72ZM32.57 9.08C32.57 9.94 31.87 10.64 31 10.64C30.14 10.64 29.44 9.94 29.44 9.08C29.44 8.21 30.14 7.51 31 7.51C31.87 7.51 32.57 8.21 32.57 9.08Z" fill="#FFFFFF" fill-opacity="0.150000" fill-rule="evenodd"/>
</svg>
