<svg width="81.000000" height="45.000000" viewBox="0 0 81 45" fill="none" xmlns="http://www.w3.org/2000/svg" xmlns:xlink="http://www.w3.org/1999/xlink">
	<desc>
			Created with Pixso.
	</desc>
	<defs/>
	<path id="Vector" d="M15.1 27.83C15.1 29.2 13.96 30.32 12.55 30.32C11.14 30.32 10 29.2 10 27.83C10 26.47 11.14 25.35 12.55 25.35C13.96 25.35 15.1 26.47 15.1 27.83ZM27.36 11.82C27.36 13.87 25.64 15.54 23.53 15.54C21.42 15.54 19.7 13.87 19.7 11.82C19.7 9.76 21.42 8.09 23.53 8.09C25.64 8.09 27.36 9.76 27.36 11.82ZM38.34 17.15C38.34 19.21 36.63 20.88 34.51 20.88C32.4 20.88 30.68 19.21 30.68 17.15C30.68 15.1 32.4 13.43 34.51 13.43C36.63 13.43 38.34 15.1 38.34 17.15ZM49.32 22.49C49.32 24.55 47.61 26.22 45.5 26.22C43.38 26.22 41.67 24.55 41.67 22.49C41.67 20.44 43.38 18.77 45.5 18.77C47.61 18.77 49.32 20.44 49.32 22.49ZM38.34 27.83C38.34 29.89 36.63 31.56 34.51 31.56C32.4 31.56 30.68 29.89 30.68 27.83C30.68 25.78 32.4 24.11 34.51 24.11C36.63 24.11 38.34 25.78 38.34 27.83ZM60.3 27.83C60.3 29.89 58.59 31.56 56.48 31.56C54.36 31.56 52.65 29.89 52.65 27.83C52.65 25.78 54.36 24.11 56.48 24.11C58.59 24.11 60.3 25.78 60.3 27.83ZM59.03 38.51C59.03 39.88 57.89 41 56.48 41C55.07 41 53.92 39.88 53.92 38.51C53.92 37.14 55.07 36.03 56.48 36.03C57.89 36.03 59.03 37.14 59.03 38.51ZM70.01 33.17C70.01 34.54 68.87 35.66 67.46 35.66C66.05 35.66 64.91 34.54 64.91 33.17C64.91 31.8 66.05 30.69 67.46 30.69C68.87 30.69 70.01 31.8 70.01 33.17ZM71.29 22.49C71.29 24.55 69.57 26.22 67.46 26.22C65.35 26.22 63.63 24.55 63.63 22.49C63.63 20.44 65.35 18.77 67.46 18.77C69.57 18.77 71.29 20.44 71.29 22.49ZM60.3 17.15C60.3 19.21 58.59 20.88 56.48 20.88C54.36 20.88 52.65 19.21 52.65 17.15C52.65 15.1 54.36 13.43 56.48 13.43C58.59 13.43 60.3 15.1 60.3 17.15ZM48.05 33.17C48.05 34.54 46.9 35.66 45.49 35.66C44.09 35.66 42.94 34.54 42.94 33.17C42.94 31.8 44.09 30.69 45.49 30.69C46.9 30.69 48.05 31.8 48.05 33.17ZM71.29 11.81C71.29 13.87 69.57 15.54 67.46 15.54C65.35 15.54 63.63 13.87 63.63 11.81C63.63 9.76 65.35 8.09 67.46 8.09C69.57 8.09 71.29 9.76 71.29 11.81ZM81 6.47C81 7.85 79.85 8.96 78.44 8.96C77.03 8.96 75.89 7.85 75.89 6.47C75.89 5.11 77.03 4 78.44 4C79.85 4 81 5.11 81 6.47ZM81 27.83C81 29.2 79.85 30.32 78.44 30.32C77.04 30.32 75.89 29.2 75.89 27.83C75.89 26.46 77.04 25.35 78.44 25.35C79.85 25.35 81 26.46 81 27.83ZM48.05 11.82C48.05 13.18 46.9 14.3 45.49 14.3C44.09 14.3 42.94 13.18 42.94 11.82C42.94 10.44 44.09 9.33 45.49 9.33C46.9 9.33 48.05 10.44 48.05 11.82ZM37.06 38.51C37.06 39.88 35.92 41 34.51 41C33.1 41 31.96 39.88 31.96 38.51C31.96 37.14 33.1 36.03 34.51 36.03C35.92 36.03 37.06 37.14 37.06 38.51ZM27.36 22.49C27.36 24.55 25.64 26.22 23.53 26.22C21.42 26.22 19.7 24.55 19.7 22.49C19.7 20.44 21.42 18.77 23.53 18.77C25.64 18.77 27.36 20.44 27.36 22.49Z" fill="#FFFFFF" fill-opacity="0.850000" fill-rule="evenodd"/>
	<path id="Vector" d="M16 17.5C16 19.43 14.43 21 12.5 21C10.56 21 9 19.43 9 17.5C9 15.56 10.56 14 12.5 14C14.43 14 16 15.56 16 17.5Z" fill="#F21F5B" fill-opacity="1.000000" fill-rule="evenodd"/>
	<path id="Vector" d="M2.99 33.03C2.99 33.82 2.32 34.46 1.49 34.46C0.66 34.46 0 33.82 0 33.03C0 32.24 0.66 31.6 1.49 31.6C2.32 31.6 2.99 32.24 2.99 33.03ZM2.99 22.49C2.99 23.28 2.32 23.93 1.49 23.93C0.66 23.93 0 23.28 0 22.49C0 21.71 0.66 21.06 1.49 21.06C2.32 21.06 2.99 21.71 2.99 22.49ZM25.03 32.96C25.03 33.75 24.36 34.39 23.53 34.39C22.71 34.39 22.04 33.75 22.04 32.96C22.04 32.17 22.71 31.52 23.53 31.52C24.36 31.52 25.03 32.17 25.03 32.96ZM25.03 1.43C25.03 2.22 24.36 2.86 23.53 2.86C22.71 2.86 22.04 2.22 22.04 1.43C22.04 0.64 22.71 0 23.53 0C24.36 0 25.03 0.64 25.03 1.43ZM47 43.56C47 44.35 46.32 45 45.5 45C44.67 45 44 44.35 44 43.56C44 42.77 44.67 42.13 45.5 42.13C46.32 42.13 47 42.77 47 43.56ZM14.01 6.69C14.01 7.48 13.34 8.12 12.51 8.12C11.69 8.12 11.02 7.48 11.02 6.69C11.02 5.9 11.69 5.26 12.51 5.26C13.34 5.26 14.01 5.9 14.01 6.69ZM36.05 6.69C36.05 7.48 35.38 8.12 34.55 8.12C33.73 8.12 33.06 7.48 33.06 6.69C33.06 5.9 33.73 5.26 34.55 5.26C35.38 5.26 36.05 5.9 36.05 6.69Z" fill="#FFFFFF" fill-opacity="0.850000" fill-rule="evenodd"/>
</svg>
