<svg width="152.000000" height="88.000000" viewBox="0 0 152 88" fill="none" xmlns="http://www.w3.org/2000/svg" xmlns:xlink="http://www.w3.org/1999/xlink">
	<desc>
			Created with Pixso.
	</desc>
	<defs/>
	<path id="Vector" d="M5.85 64.6C5.85 66.14 4.54 67.39 2.92 67.39C1.3 67.39 0 66.14 0 64.6C0 63.05 1.3 61.8 2.92 61.8C4.54 61.8 5.85 63.05 5.85 64.6ZM5.85 43.99C5.85 45.54 4.54 46.79 2.92 46.79C1.3 46.79 0 45.54 0 43.99C0 42.45 1.3 41.2 2.92 41.2C4.54 41.2 5.85 42.45 5.85 43.99ZM49 64.45C49 65.99 47.69 67.25 46.07 67.25C44.45 67.25 43.14 65.99 43.14 64.45C43.14 62.91 44.45 61.65 46.07 61.65C47.69 61.65 49 62.91 49 64.45ZM49 2.79C49 4.34 47.69 5.59 46.07 5.59C44.45 5.59 43.14 4.34 43.14 2.79C43.14 1.25 44.45 0 46.07 0C47.69 0 49 1.25 49 2.79ZM92 85.2C92 86.74 90.68 88 89.07 88C87.45 88 86.14 86.74 86.14 85.2C86.14 83.65 87.45 82.4 89.07 82.4C90.68 82.4 92 83.65 92 85.2ZM27.43 13.09C27.43 14.64 26.12 15.89 24.5 15.89C22.88 15.89 21.57 14.64 21.57 13.09C21.57 11.55 22.88 10.3 24.5 10.3C26.12 10.3 27.43 11.55 27.43 13.09ZM70.57 13.09C70.57 14.64 69.26 15.89 67.64 15.89C66.02 15.89 64.71 14.64 64.71 13.09C64.71 11.55 66.02 10.3 67.64 10.3C69.26 10.3 70.57 11.55 70.57 13.09Z" fill="#1946BA" fill-opacity="0.850000" fill-rule="evenodd"/>
	<path id="Vector" d="M32 34C32 37.86 28.64 41 24.5 41C20.35 41 17 37.86 17 34C17 30.13 20.35 27 24.5 27C28.64 27 32 30.13 32 34Z" fill="#F21F5B" fill-opacity="1.000000" fill-rule="evenodd"/>
	<path id="Vector" d="M22.06 54.38C22.06 57.05 19.8 59.21 17.02 59.21C14.25 59.21 12 57.05 12 54.38C12 51.72 14.25 49.56 17.02 49.56C19.8 49.56 22.06 51.72 22.06 54.38ZM46.23 23.21C46.23 27.21 42.85 30.45 38.68 30.45C34.51 30.45 31.13 27.21 31.13 23.21C31.13 19.21 34.51 15.97 38.68 15.97C42.85 15.97 46.23 19.21 46.23 23.21ZM67.88 33.6C67.88 37.6 64.5 40.84 60.34 40.84C56.17 40.84 52.79 37.6 52.79 33.6C52.79 29.6 56.17 26.36 60.34 26.36C64.5 26.36 67.88 29.6 67.88 33.6ZM89.54 43.99C89.54 47.99 86.16 51.23 82 51.23C77.83 51.23 74.45 47.99 74.45 43.99C74.45 40 77.83 36.75 82 36.75C86.16 36.75 89.54 40 89.54 43.99ZM67.88 54.39C67.88 58.38 64.5 61.63 60.34 61.63C56.17 61.63 52.79 58.38 52.79 54.39C52.79 50.38 56.17 47.15 60.34 47.15C64.5 47.15 67.88 50.38 67.88 54.39ZM111.2 54.39C111.2 58.38 107.82 61.63 103.65 61.63C99.48 61.63 96.1 58.38 96.1 54.39C96.1 50.38 99.48 47.15 103.65 47.15C107.82 47.15 111.2 50.38 111.2 54.39ZM108.68 75.17C108.68 77.83 106.43 80 103.65 80C100.87 80 98.62 77.83 98.62 75.17C98.62 72.5 100.87 70.34 103.65 70.34C106.43 70.34 108.68 72.5 108.68 75.17ZM130.34 64.78C130.34 67.44 128.09 69.6 125.31 69.6C122.53 69.6 120.28 67.44 120.28 64.78C120.28 62.11 122.53 59.95 125.31 59.95C128.09 59.95 130.34 62.11 130.34 64.78ZM132.85 43.99C132.85 47.99 129.48 51.23 125.31 51.23C121.14 51.23 117.76 47.99 117.76 43.99C117.76 40 121.14 36.75 125.31 36.75C129.48 36.75 132.85 40 132.85 43.99ZM111.2 33.6C111.2 37.6 107.82 40.84 103.65 40.84C99.48 40.84 96.1 37.6 96.1 33.6C96.1 29.61 99.48 26.36 103.65 26.36C107.82 26.36 111.2 29.61 111.2 33.6ZM87.03 64.78C87.03 67.44 84.77 69.6 81.99 69.6C79.22 69.6 76.96 67.44 76.96 64.78C76.96 62.11 79.22 59.95 81.99 59.95C84.77 59.95 87.03 62.11 87.03 64.78ZM132.85 23.21C132.85 27.21 129.48 30.45 125.31 30.45C121.14 30.45 117.76 27.21 117.76 23.21C117.76 19.21 121.14 15.97 125.31 15.97C129.48 15.97 132.85 19.21 132.85 23.21ZM152 12.82C152 15.49 149.74 17.65 146.96 17.65C144.18 17.65 141.93 15.49 141.93 12.82C141.93 10.16 144.18 8 146.96 8C149.74 8 152 10.16 152 12.82ZM152 54.38C152 57.05 149.74 59.21 146.96 59.21C144.19 59.21 141.93 57.05 141.93 54.38C141.93 51.72 144.19 49.56 146.96 49.56C149.74 49.56 152 51.72 152 54.38ZM87.03 23.21C87.03 25.88 84.77 28.04 81.99 28.04C79.22 28.04 76.96 25.88 76.96 23.21C76.96 20.55 79.22 18.38 81.99 18.38C84.77 18.38 87.03 20.55 87.03 23.21ZM65.37 75.17C65.37 77.83 63.12 80 60.34 80C57.56 80 55.31 77.83 55.31 75.17C55.31 72.5 57.56 70.34 60.34 70.34C63.12 70.34 65.37 72.5 65.37 75.17ZM46.23 43.99C46.23 47.99 42.85 51.23 38.68 51.23C34.52 51.23 31.13 47.99 31.13 43.99C31.13 40 34.52 36.75 38.68 36.75C42.85 36.75 46.23 40 46.23 43.99Z" fill="#1946BA" fill-opacity="0.850000" fill-rule="evenodd"/>
</svg>
