<svg width="35.752930" height="11.199951" viewBox="0 0 35.7529 11.2" fill="none" xmlns="http://www.w3.org/2000/svg" xmlns:xlink="http://www.w3.org/1999/xlink">
	<desc>
			Created with Pixso.
	</desc>
	<defs/>
	<path id="RU" d="M1.03 8.73L1.97 8.73L1.97 5.64L3.85 5.64L6.41 8.73L7.59 8.73L4.93 5.56C5.55 5.45 6.06 5.21 6.45 4.83Q6.54 4.74 6.62 4.64Q7.03 4.11 7.03 3.27Q7.03 2.54 6.7 2.04Q6.64 1.95 6.57 1.87Q6.23 1.45 5.8 1.23Q5.65 1.15 5.49 1.1Q4.87 0.89 4.09 0.89L1.03 0.89L1.03 8.73ZM15.28 0.89L14.33 0.89L14.33 5.82Q14.33 6.81 13.84 7.34Q13.26 7.97 12 7.97Q10.74 7.97 10.15 7.34Q9.66 6.8 9.66 5.82L9.66 0.89L8.72 0.89L8.72 5.86Q8.72 7.2 9.39 7.92Q9.51 8.04 9.64 8.15Q9.68 8.18 9.71 8.2Q10.62 8.87 12 8.87C12.46 8.87 12.87 8.81 13.25 8.71C13.63 8.6 13.97 8.44 14.28 8.22C14.59 7.98 14.83 7.67 15.01 7.28C15.19 6.87 15.28 6.4 15.28 5.86L15.28 0.89ZM1.97 4.74L1.97 1.79L4.14 1.79Q4.97 1.79 5.52 2.12Q5.68 2.22 5.79 2.36Q6.08 2.69 6.08 3.27Q6.08 3.82 5.81 4.15Q5.69 4.3 5.52 4.41Q4.97 4.74 4.14 4.74L1.97 4.74Z" fill="#9F9F9F" fill-opacity="1.000000" fill-rule="evenodd"/>
	<path id="Fill 413 Copy 8" d="M35.75 2.98L34.46 1.68L30.27 5.91L26.08 1.68L24.8 2.98L30.27 8.52L35.75 2.98Z" fill="#3949E7" fill-opacity="1.000000" fill-rule="evenodd"/>
</svg>
