<svg width="16.263428" height="16.360962" viewBox="0 0 16.2634 16.361" fill="none" xmlns="http://www.w3.org/2000/svg" xmlns:xlink="http://www.w3.org/1999/xlink">
	<desc>
			Created with Pixso.
	</desc>
	<defs/>
	<path id="Union" d="M9.37939 8.18689L15.972 1.66125C16.3605 1.27686 16.3605 0.672729 15.972 0.28833C15.5837 -0.0960693 14.9734 -0.0960693 14.5851 0.28833L7.99231 6.81396L1.67834 0.564087C1.28992 0.179688 0.679688 0.179688 0.29126 0.564087C-0.0970459 0.948486 -0.0970459 1.55261 0.29126 1.93701L6.60535 8.18689L0.304199 14.424C-0.0842285 14.8083 -0.0842285 15.4125 0.304199 15.7969C0.692505 16.1813 1.30286 16.1813 1.69116 15.7969L7.99231 9.55981L14.5721 16.0726C14.9606 16.457 15.5708 16.457 15.9592 16.0726C16.3475 15.6882 16.3475 15.0841 15.9592 14.6997L9.37939 8.18689Z" clip-rule="evenodd" fill="#C4C4C4" fill-opacity="1.000000" fill-rule="evenodd"/>
</svg>
