<svg width="197.798950" height="85.137939" viewBox="0 0 197.799 85.1379" fill="none" xmlns="http://www.w3.org/2000/svg" xmlns:xlink="http://www.w3.org/1999/xlink">
	<desc>
			Created with Pixso.
	</desc>
	<defs/>
	<path id="Vector" d="M62.38 29.46C62.38 30.89 61.22 32.05 59.78 32.05C58.35 32.05 57.19 30.89 57.19 29.46C57.19 28.02 58.35 26.86 59.78 26.86C61.22 26.86 62.38 28.02 62.38 29.46ZM74.85 12.69C74.85 14.84 73.11 16.58 70.96 16.58C68.81 16.58 67.07 14.84 67.07 12.69C67.07 10.54 68.81 8.8 70.96 8.8C73.11 8.8 74.85 10.54 74.85 12.69ZM86.03 18.28C86.03 20.43 84.28 22.17 82.13 22.17C79.98 22.17 78.24 20.43 78.24 18.28C78.24 16.13 79.98 14.38 82.13 14.38C84.28 14.38 86.03 16.13 86.03 18.28ZM97.2 23.87C97.2 26.02 95.46 27.76 93.31 27.76C91.16 27.76 89.41 26.02 89.41 23.87C89.41 21.72 91.16 19.97 93.31 19.97C95.46 19.97 97.2 21.72 97.2 23.87ZM86.03 29.46C86.03 31.61 84.28 33.35 82.13 33.35C79.98 33.35 78.24 31.61 78.24 29.46C78.24 27.3 79.98 25.56 82.13 25.56C84.28 25.56 86.03 27.3 86.03 29.46ZM108.38 29.46C108.38 31.61 106.63 33.35 104.48 33.35C102.33 33.35 100.59 31.61 100.59 29.46C100.59 27.3 102.33 25.56 104.48 25.56C106.63 25.56 108.38 27.3 108.38 29.46ZM107.08 40.63C107.08 42.07 105.92 43.23 104.48 43.23C103.05 43.23 101.89 42.07 101.89 40.63C101.89 39.2 103.05 38.04 104.48 38.04C105.92 38.04 107.08 39.2 107.08 40.63ZM118.25 35.04C118.25 36.48 117.09 37.64 115.66 37.64C114.22 37.64 113.06 36.48 113.06 35.04C113.06 33.61 114.22 32.45 115.66 32.45C117.09 32.45 118.25 33.61 118.25 35.04ZM119.55 23.87C119.55 26.02 117.81 27.76 115.66 27.76C113.51 27.76 111.76 26.02 111.76 23.87C111.76 21.72 113.51 19.97 115.66 19.97C117.81 19.97 119.55 21.72 119.55 23.87ZM108.38 18.28C108.38 20.43 106.63 22.17 104.48 22.17C102.33 22.17 100.59 20.43 100.59 18.28C100.59 16.13 102.33 14.38 104.48 14.38C106.63 14.38 108.38 16.13 108.38 18.28ZM95.9 35.04C95.9 36.48 94.74 37.64 93.31 37.64C91.87 37.64 90.71 36.48 90.71 35.04C90.71 33.61 91.87 32.45 93.31 32.45C94.74 32.45 95.9 33.61 95.9 35.04ZM119.55 12.69C119.55 14.84 117.81 16.58 115.66 16.58C113.51 16.58 111.76 14.84 111.76 12.69C111.76 10.54 113.51 8.79 115.66 8.79C117.81 8.79 119.55 10.54 119.55 12.69ZM129.43 7.1C129.43 8.53 128.27 9.7 126.83 9.7C125.4 9.7 124.24 8.53 124.24 7.1C124.24 5.67 125.4 4.5 126.83 4.5C128.27 4.5 129.43 5.67 129.43 7.1ZM129.43 29.46C129.43 30.89 128.27 32.05 126.83 32.05C125.4 32.05 124.24 30.89 124.24 29.46C124.24 28.02 125.4 26.86 126.83 26.86C128.27 26.86 129.43 28.02 129.43 29.46ZM95.9 12.69C95.9 14.12 94.74 15.29 93.31 15.29C91.87 15.29 90.71 14.12 90.71 12.69C90.71 11.26 91.87 10.09 93.31 10.09C94.74 10.09 95.9 11.26 95.9 12.69ZM84.73 40.63C84.73 42.07 83.57 43.23 82.13 43.23C80.7 43.23 79.54 42.07 79.54 40.63C79.54 39.2 80.7 38.04 82.13 38.04C83.57 38.04 84.73 39.2 84.73 40.63ZM74.85 23.87C74.85 26.02 73.11 27.76 70.96 27.76C68.81 27.76 67.07 26.02 67.07 23.87C67.07 21.72 68.81 19.97 70.96 19.97C73.11 19.97 74.85 21.72 74.85 23.87Z" fill="#FFFFFF" fill-opacity="1.000000" fill-rule="evenodd"/>
	<path id="Vector" d="M50.13 35.04C50.13 35.88 49.45 36.56 48.61 36.56C47.77 36.56 47.09 35.88 47.09 35.04C47.09 34.21 47.77 33.53 48.61 33.53C49.45 33.53 50.13 34.21 50.13 35.04ZM50.13 23.87C50.13 24.7 49.45 25.38 48.61 25.38C47.77 25.38 47.09 24.7 47.09 23.87C47.09 23.03 47.77 22.35 48.61 22.35C49.45 22.35 50.13 23.03 50.13 23.87ZM72.48 34.97C72.48 35.8 71.8 36.48 70.96 36.48C70.12 36.48 69.44 35.8 69.44 34.97C69.44 34.13 70.12 33.45 70.96 33.45C71.8 33.45 72.48 34.13 72.48 34.97ZM72.48 1.51C72.48 2.35 71.8 3.03 70.96 3.03C70.12 3.03 69.44 2.35 69.44 1.51C69.44 0.67 70.12 0 70.96 0C71.8 0 72.48 0.67 72.48 1.51ZM94.75 46.22C94.75 47.06 94.07 47.74 93.23 47.74C92.39 47.74 91.71 47.06 91.71 46.22C91.71 45.38 92.39 44.7 93.23 44.7C94.07 44.7 94.75 45.38 94.75 46.22ZM61.3 7.1C61.3 7.94 60.62 8.62 59.78 8.62C58.95 8.62 58.27 7.94 58.27 7.1C58.27 6.26 58.95 5.58 59.78 5.58C60.62 5.58 61.3 6.26 61.3 7.1ZM83.65 7.1C83.65 7.94 82.97 8.62 82.13 8.62C81.29 8.62 80.62 7.94 80.62 7.1C80.62 6.26 81.29 5.58 82.13 5.58C82.97 5.58 83.65 6.26 83.65 7.1Z" fill="#FFFFFF" fill-opacity="1.000000" fill-rule="evenodd"/>
	<path id="Vector" d="M94.75 46.22C94.75 47.06 94.07 47.74 93.23 47.74C92.39 47.74 91.71 47.06 91.71 46.22C91.71 45.38 92.39 44.7 93.23 44.7C94.07 44.7 94.75 45.38 94.75 46.22ZM150.7 18.28C150.7 19.12 150.02 19.8 149.18 19.8C148.34 19.8 147.66 19.12 147.66 18.28C147.66 17.44 148.34 16.76 149.18 16.76C150.02 16.76 150.7 17.44 150.7 18.28ZM128.35 40.63C128.35 41.47 127.67 42.15 126.83 42.15C125.99 42.15 125.31 41.47 125.31 40.63C125.31 39.8 125.99 39.11 126.83 39.11C127.67 39.11 128.35 39.8 128.35 40.63ZM141.9 12.69C141.9 14.84 140.16 16.58 138 16.58C135.85 16.58 134.11 14.84 134.11 12.69C134.11 10.54 135.85 8.8 138 8.8C140.16 8.8 141.9 10.54 141.9 12.69ZM130.72 18.28C130.72 20.43 128.98 22.17 126.83 22.17C124.68 22.17 122.94 20.43 122.94 18.28C122.94 16.13 124.68 14.38 126.83 14.38C128.98 14.38 130.72 16.13 130.72 18.28ZM139.52 35.04C139.52 35.88 138.84 36.56 138 36.56C137.17 36.56 136.49 35.88 136.49 35.04C136.49 34.21 137.17 33.53 138 33.53C138.84 33.53 139.52 34.21 139.52 35.04ZM140.6 23.87C140.6 25.3 139.44 26.46 138 26.46C136.57 26.46 135.41 25.3 135.41 23.87C135.41 22.43 136.57 21.27 138 21.27C139.44 21.27 140.6 22.43 140.6 23.87ZM106 7.1C106 7.94 105.32 8.62 104.48 8.62C103.64 8.62 102.96 7.94 102.96 7.1C102.96 6.26 103.64 5.58 104.48 5.58C105.32 5.58 106 6.26 106 7.1ZM139.52 1.51C139.52 2.35 138.84 3.03 138.01 3.03C137.17 3.03 136.49 2.35 136.49 1.51C136.49 0.67 137.17 0 138.01 0C138.84 0 139.52 0.67 139.52 1.51ZM150.7 7.1C150.7 7.94 150.02 8.62 149.18 8.62C148.34 8.62 147.66 7.94 147.66 7.1C147.66 6.26 148.34 5.58 149.18 5.58C150.02 5.58 150.7 6.26 150.7 7.1ZM10.48 73.52C10.68 73.03 10.72 72.63 10.6 72.34C10.5 72.11 10.31 71.94 10.02 71.83C9.33 71.57 8.78 71.9 8.41 72.8L5.82 79.08L2.25 72.66C2.04 72.27 1.78 72 1.49 71.87C1.2 71.73 0.87 71.75 0.52 71.93C0.2 72.11 0.03 72.39 0 72.76C-0.03 73.11 0.07 73.47 0.28 73.82L4.67 81.45C4.47 81.95 4.26 82.33 4.05 82.57C3.84 82.82 3.59 82.93 3.29 82.93C3.16 82.93 3.04 82.92 2.92 82.9C2.81 82.87 2.67 82.83 2.52 82.77C2.36 82.7 2.24 82.67 2.18 82.65C1.52 82.44 1.07 82.62 0.86 83.19C0.61 83.84 0.85 84.36 1.55 84.74C2.02 85 2.64 85.13 3.41 85.13C4.26 85.13 4.97 84.81 5.52 84.17C6.06 83.54 6.63 82.52 7.23 81.13L10.48 73.52ZM14.04 84.94C14.42 84.94 14.72 84.83 14.93 84.6C15.15 84.37 15.26 84.07 15.26 83.71L15.26 79.28L21.12 79.28L21.12 83.71C21.12 84.07 21.23 84.37 21.43 84.6C21.64 84.83 21.95 84.94 22.33 84.94C22.71 84.94 23.01 84.83 23.22 84.6C23.44 84.37 23.55 84.07 23.55 83.71L23.55 72.98C23.55 72.62 23.44 72.32 23.22 72.08C23.01 71.85 22.71 71.73 22.33 71.73C21.95 71.73 21.64 71.85 21.43 72.08C21.23 72.32 21.12 72.62 21.12 72.98L21.12 77.1L15.26 77.1L15.26 72.98C15.26 72.62 15.15 72.32 14.93 72.08C14.72 71.85 14.42 71.73 14.04 71.73C13.66 71.73 13.35 71.85 13.14 72.08C12.94 72.32 12.83 72.62 12.83 72.98L12.83 83.71C12.83 84.07 12.94 84.37 13.15 84.6C13.35 84.83 13.66 84.94 14.04 84.94ZM28.14 84.94C28.53 84.94 28.91 84.71 29.27 84.25L35.28 76.04L35.28 83.71C35.28 84.06 35.38 84.35 35.59 84.59C35.8 84.82 36.11 84.94 36.51 84.94C36.9 84.94 37.2 84.83 37.4 84.6C37.6 84.37 37.7 84.07 37.7 83.71L37.7 72.98C37.7 72.15 37.31 71.73 36.55 71.73C36.11 71.73 35.72 71.95 35.39 72.4L29.41 80.67L29.41 72.98C29.41 72.62 29.31 72.32 29.1 72.08C28.89 71.85 28.59 71.73 28.2 71.73C27.8 71.73 27.49 71.85 27.29 72.09C27.09 72.32 26.99 72.62 26.99 72.98L26.99 83.71C26.99 84.1 27.09 84.4 27.29 84.62C27.5 84.83 27.78 84.94 28.14 84.94ZM47.66 82.55C47.2 82.85 46.51 83.01 45.59 83.01C44.77 83.01 44.06 82.97 43.48 82.9L43.48 79.11L45.57 79.11C47.43 79.11 48.34 79.74 48.34 81.04C48.34 81.74 48.11 82.25 47.66 82.55ZM45.33 77.26L43.48 77.26L43.48 73.77C44.05 73.71 44.61 73.68 45.14 73.68C46.87 73.68 47.71 74.23 47.71 75.36C47.71 76.64 46.93 77.26 45.33 77.26ZM48.6 77.87C49.06 77.62 49.44 77.26 49.72 76.8C50.03 76.29 50.19 75.73 50.19 75.14C50.19 72.81 48.56 71.63 45.35 71.63C44.21 71.63 43.18 71.71 42.29 71.86C41.53 71.99 41.14 72.45 41.14 73.21L41.14 83.54C41.14 84.29 41.52 84.72 42.27 84.83C43.16 84.97 44.25 85.04 45.5 85.04C49.03 85.04 50.82 83.66 50.82 80.95C50.82 80.19 50.6 79.53 50.18 78.98C49.79 78.48 49.26 78.1 48.6 77.87ZM62.35 84.65C62.56 84.45 62.67 84.19 62.67 83.86C62.67 83.53 62.56 83.26 62.35 83.06C62.14 82.86 61.86 82.76 61.51 82.76L56.12 82.76L56.12 79.25L60.26 79.25C60.62 79.25 60.91 79.14 61.12 78.94C61.33 78.74 61.44 78.47 61.44 78.15C61.44 77.81 61.33 77.54 61.12 77.35C60.91 77.16 60.62 77.07 60.26 77.07L56.12 77.07L56.12 73.91L61.32 73.91C61.67 73.91 61.95 73.81 62.16 73.61C62.37 73.41 62.48 73.15 62.48 72.83C62.48 72.49 62.37 72.22 62.16 72.02C61.95 71.83 61.67 71.73 61.32 71.73L54.92 71.73C54.54 71.73 54.23 71.85 54.01 72.08C53.8 72.32 53.69 72.62 53.69 72.98L53.69 83.69C53.69 84.05 53.8 84.35 54.02 84.59C54.25 84.82 54.56 84.94 54.94 84.94L61.51 84.94C61.86 84.94 62.14 84.84 62.35 84.65ZM67.49 73.88C68.02 73.81 68.54 73.77 69.06 73.77C70.8 73.77 71.65 74.49 71.65 75.95C71.65 77.52 70.76 78.28 68.93 78.28C68.33 78.28 67.85 78.25 67.49 78.21L67.49 73.88ZM74.19 75.89C74.19 74.44 73.73 73.35 72.83 72.66C71.93 71.98 70.68 71.63 69.12 71.63C68.01 71.63 67.02 71.72 66.19 71.88C65.44 72.03 65.07 72.5 65.07 73.28L65.07 83.71C65.07 84.07 65.17 84.37 65.38 84.6C65.59 84.83 65.89 84.94 66.28 84.94C66.65 84.94 66.95 84.83 67.17 84.6C67.38 84.37 67.49 84.07 67.49 83.71L67.49 80.32C67.87 80.37 68.4 80.4 69.06 80.4C70.57 80.4 71.82 80.02 72.76 79.27C73.71 78.51 74.19 77.37 74.19 75.89ZM84.86 82.15C83.96 82.68 83.07 82.95 82.21 82.95C81.15 82.95 80.25 82.54 79.56 81.72C78.86 80.9 78.51 79.76 78.51 78.32C78.51 76.93 78.83 75.8 79.48 74.97C80.54 73.61 82.27 73.35 84.61 74.24C85.4 74.54 85.91 74.42 86.15 73.9C86.42 73.32 86.25 72.82 85.67 72.42C84.82 71.84 83.63 71.54 82.12 71.54C80.2 71.54 78.68 72.16 77.6 73.39C76.51 74.62 75.97 76.28 75.97 78.33C75.97 80.41 76.48 82.08 77.5 83.3C78.52 84.52 80.05 85.13 82.04 85.13C83.62 85.13 84.93 84.75 85.95 84C86.28 83.75 86.48 83.46 86.56 83.14C86.63 82.82 86.58 82.53 86.4 82.3C86.07 81.82 85.54 81.76 84.86 82.15ZM98.75 71.73C98.31 71.73 97.92 71.95 97.59 72.4L91.62 80.67L91.62 72.98C91.62 72.62 91.52 72.32 91.31 72.08C91.1 71.85 90.8 71.73 90.41 71.73C90.01 71.73 89.7 71.85 89.5 72.09C89.3 72.32 89.2 72.62 89.2 72.98L89.2 83.71C89.2 84.1 89.3 84.4 89.5 84.62C89.7 84.83 89.99 84.94 90.35 84.94C90.74 84.94 91.12 84.71 91.47 84.25L97.49 76.04L97.49 83.71C97.49 84.06 97.59 84.35 97.8 84.59C98.01 84.82 98.32 84.94 98.72 84.94C99.11 84.94 99.4 84.83 99.61 84.6C99.81 84.37 99.91 84.07 99.91 83.71L99.91 72.98C99.91 72.15 99.52 71.73 98.75 71.73ZM113.33 72.81C113.33 72.47 113.22 72.2 113.01 72.01C112.8 71.82 112.51 71.73 112.15 71.73L103.18 71.73C102.84 71.73 102.56 71.82 102.35 72.01C102.13 72.2 102.03 72.47 102.03 72.81C102.03 73.13 102.13 73.4 102.34 73.6C102.55 73.8 102.84 73.91 103.18 73.91L106.46 73.91L106.46 83.71C106.46 84.07 106.56 84.37 106.77 84.6C106.98 84.83 107.28 84.94 107.67 84.94C108.06 84.94 108.36 84.83 108.57 84.6C108.78 84.37 108.88 84.07 108.88 83.71L108.88 73.91L112.15 73.91C112.51 73.91 112.8 73.8 113.01 73.6C113.22 73.4 113.33 73.13 113.33 72.81ZM123.26 82.76L117.87 82.76L117.87 79.25L122.02 79.25C122.37 79.25 122.66 79.14 122.87 78.94C123.08 78.74 123.19 78.47 123.19 78.15C123.19 77.81 123.08 77.54 122.87 77.35C122.66 77.16 122.37 77.07 122.02 77.07L117.87 77.07L117.87 73.91L123.07 73.91C123.42 73.91 123.7 73.81 123.91 73.61C124.12 73.42 124.23 73.15 124.23 72.83C124.23 72.49 124.12 72.22 123.91 72.02C123.7 71.83 123.42 71.73 123.07 71.73L116.68 71.73C116.29 71.73 115.99 71.85 115.77 72.08C115.55 72.32 115.45 72.62 115.45 72.98L115.45 83.69C115.45 84.05 115.56 84.35 115.78 84.59C116 84.82 116.31 84.94 116.7 84.94L123.26 84.94C123.61 84.94 123.89 84.84 124.1 84.65C124.31 84.45 124.42 84.19 124.42 83.86C124.42 83.53 124.31 83.26 124.1 83.06C123.89 82.86 123.61 82.76 123.26 82.76ZM136.61 72.81C136.61 72.47 136.5 72.2 136.29 72.01C136.08 71.82 135.79 71.73 135.43 71.73L126.46 71.73C126.12 71.73 125.83 71.82 125.62 72.01C125.41 72.2 125.31 72.47 125.31 72.81C125.31 73.13 125.41 73.4 125.62 73.6C125.83 73.8 126.11 73.91 126.46 73.91L129.74 73.91L129.74 83.71C129.74 84.07 129.84 84.37 130.05 84.6C130.26 84.83 130.56 84.94 130.95 84.94C131.34 84.94 131.64 84.83 131.85 84.6C132.06 84.37 132.16 84.07 132.16 83.71L132.16 73.91L135.43 73.91C135.79 73.91 136.08 73.8 136.29 73.6C136.5 73.4 136.61 73.13 136.61 72.81ZM154.74 83.71L154.74 72.98C154.74 72.15 154.35 71.73 153.58 71.73C153.14 71.73 152.75 71.95 152.42 72.4L146.45 80.67L146.45 72.98C146.45 72.62 146.34 72.32 146.14 72.08C145.93 71.85 145.62 71.73 145.24 71.73C144.84 71.73 144.53 71.85 144.33 72.09C144.13 72.32 144.02 72.62 144.02 72.98L144.02 83.71C144.02 84.1 144.13 84.4 144.33 84.62C144.53 84.83 144.82 84.94 145.18 84.94C145.57 84.94 145.95 84.71 146.3 84.25L152.31 76.04L152.31 83.71C152.31 84.06 152.42 84.35 152.63 84.59C152.84 84.82 153.14 84.94 153.55 84.94C153.93 84.94 154.23 84.83 154.44 84.6C154.64 84.37 154.74 84.07 154.74 83.71ZM166.98 71.73L158.01 71.73C157.67 71.73 157.38 71.82 157.17 72.01C156.96 72.2 156.85 72.47 156.85 72.81C156.85 73.13 156.96 73.4 157.17 73.6C157.38 73.8 157.66 73.91 158.01 73.91L161.28 73.91L161.28 83.71C161.28 84.07 161.39 84.37 161.6 84.6C161.81 84.83 162.11 84.94 162.5 84.94C162.88 84.94 163.19 84.83 163.39 84.6C163.6 84.37 163.71 84.07 163.71 83.71L163.71 73.91L166.98 73.91C167.34 73.91 167.63 73.8 167.84 73.6C168.05 73.4 168.16 73.13 168.16 72.81C168.16 72.47 168.05 72.2 167.84 72.01C167.63 71.82 167.34 71.73 166.98 71.73ZM181.19 71.73C180.73 71.73 180.33 71.98 180.01 72.48L176.29 78.49L172.5 72.5C172.18 71.99 171.76 71.73 171.26 71.73C170.92 71.73 170.65 71.83 170.44 72.04C170.23 72.25 170.12 72.57 170.12 73L170.12 83.71C170.12 84.53 170.5 84.94 171.26 84.94C172.01 84.94 172.4 84.53 172.4 83.71L172.4 76.37L175.05 80.53C175.35 81 175.72 81.23 176.18 81.23C176.62 81.23 177 80.99 177.29 80.52L179.91 76.28L179.91 83.71C179.91 84.07 180.02 84.37 180.23 84.6C180.45 84.83 180.75 84.94 181.12 84.94C181.51 84.94 181.81 84.83 182.02 84.6C182.23 84.37 182.33 84.07 182.33 83.71L182.33 72.98C182.33 72.61 182.23 72.3 182.04 72.08C181.84 71.84 181.56 71.73 181.19 71.73ZM194.28 81.67C193.63 82.52 192.7 82.95 191.49 82.95C190.3 82.95 189.37 82.52 188.72 81.67C188.07 80.81 187.75 79.69 187.75 78.34C187.75 76.98 188.07 75.86 188.72 75C189.37 74.15 190.3 73.72 191.49 73.72C192.7 73.72 193.63 74.15 194.28 75C194.93 75.86 195.25 76.98 195.25 78.34C195.25 79.69 194.93 80.81 194.28 81.67ZM196.15 73.46C195.05 72.18 193.49 71.54 191.49 71.54C189.49 71.54 187.93 72.18 186.84 73.46C185.76 74.73 185.21 76.37 185.21 78.34C185.21 80.31 185.76 81.96 186.84 83.22C187.93 84.49 189.5 85.13 191.49 85.13C193.49 85.13 195.05 84.49 196.15 83.22C197.24 81.96 197.79 80.31 197.79 78.34C197.79 76.37 197.24 74.73 196.15 73.46Z" fill="#FFFFFF" fill-opacity="1.000000" fill-rule="evenodd"/>
	<path id="Vector" d="M63.68 18.28C63.68 20.43 61.93 22.17 59.78 22.17C57.63 22.17 55.89 20.43 55.89 18.28C55.89 16.13 57.63 14.38 59.78 14.38C61.93 14.38 63.68 16.13 63.68 18.28Z" fill="#EC1947" fill-opacity="1.000000" fill-rule="evenodd"/>
</svg>
