<svg width="15.000000" height="15.000000" viewBox="0 0 15 15" fill="none" xmlns="http://www.w3.org/2000/svg" xmlns:xlink="http://www.w3.org/1999/xlink">
	<desc>
			Created with Pixso.
	</desc>
	<defs/>
	<path id="Vector" d="M10.72 9.43L10.04 9.43L9.8 9.19C10.64 8.22 11.14 6.95 11.14 5.57C11.14 2.49 8.65 0 5.57 0C2.49 0 0 2.49 0 5.57C0 8.65 2.49 11.14 5.57 11.14C6.95 11.14 8.22 10.64 9.19 9.8L9.43 10.04L9.43 10.71L13.72 15L15 13.72L10.72 9.43ZM5.57 9.43C3.44 9.43 1.71 7.7 1.71 5.57C1.71 3.44 3.44 1.71 5.57 1.71C7.7 1.71 9.43 3.44 9.43 5.57C9.43 7.7 7.7 9.43 5.57 9.43Z" fill="#3949E7" fill-opacity="1.000000" fill-rule="evenodd"/>
</svg>
